<?xml version="1.0" standalone="no"?>
<!DOCTYPE svg PUBLIC "-//W3C//DTD SVG 20010904//EN"
 "http://www.w3.org/TR/2001/REC-SVG-20010904/DTD/svg10.dtd">
<svg version="1.0" xmlns="http://www.w3.org/2000/svg"
 width="1135.000000pt" height="1135.000000pt" viewBox="0 0 1135.000000 1135.000000"
 preserveAspectRatio="xMidYMid meet">
<metadata>
Created by potrace 1.14, written by Peter Selinger 2001-2017
</metadata>
<g transform="translate(0.000000,1135.000000) scale(0.100000,-0.100000)"
fill="#000000" stroke="none">
<path d="M11130 9954 c-41 -6 -135 -26 -207 -44 -73 -17 -136 -32 -140 -32 -5
0 -15 -4 -24 -9 -9 -4 -27 -10 -40 -13 -41 -9 -140 -36 -239 -66 -478 -146
-580 -178 -1140 -361 -190 -62 -347 -113 -350 -114 -3 0 -111 -35 -240 -77
-129 -42 -309 -100 -400 -129 -198 -62 -249 -84 -332 -140 -74 -51 -77 -53
-314 -278 -95 -90 -340 -321 -428 -404 -28 -26 -113 -107 -190 -180 -76 -73
-159 -152 -185 -176 -51 -48 -286 -270 -341 -322 -20 -19 -110 -104 -200 -190
-91 -86 -181 -172 -201 -190 -43 -41 -311 -294 -383 -362 -28 -27 -111 -106
-185 -175 -74 -70 -154 -146 -180 -170 -168 -161 -323 -307 -366 -347 -27 -26
-122 -115 -209 -199 -88 -83 -174 -164 -191 -181 -138 -130 -366 -345 -440
-416 -83 -79 -190 -181 -291 -275 -22 -22 -108 -103 -190 -180 -82 -78 -171
-163 -199 -189 -27 -25 -115 -108 -194 -183 -79 -75 -163 -155 -186 -177 -24
-22 -116 -110 -206 -195 -90 -85 -177 -168 -194 -184 -16 -15 -91 -86 -165
-156 -74 -71 -160 -152 -190 -180 -30 -29 -118 -112 -195 -185 -77 -73 -162
-154 -190 -180 -27 -25 -115 -108 -194 -183 -79 -75 -157 -150 -175 -166 -17
-16 -80 -77 -141 -134 -60 -58 -146 -139 -190 -181 -108 -102 -279 -265 -390
-370 -50 -47 -169 -160 -264 -251 -96 -91 -197 -187 -225 -213 -267 -254 -344
-327 -378 -358 -28 -25 -36 -37 -27 -41 32 -11 292 0 394 17 52 9 89 14 130
21 22 3 60 10 85 16 25 5 52 11 60 13 70 15 206 54 305 87 390 130 788 345
1218 657 97 70 756 580 857 664 12 9 110 87 215 170 35 27 647 514 675 537 19
15 199 160 400 321 309 248 434 349 565 457 11 9 65 53 120 96 55 44 102 83
105 86 3 3 61 51 130 106 116 94 604 493 695 568 22 19 85 71 140 116 55 45
109 89 120 98 11 9 56 46 100 82 44 36 85 70 91 75 6 6 33 28 60 50 26 22 89
74 139 115 49 41 131 108 180 148 50 41 110 92 135 112 25 21 106 88 180 150
74 61 153 126 175 145 225 186 429 356 470 390 28 24 199 166 380 317 182 150
341 283 355 295 43 37 175 146 225 188 72 59 253 210 305 254 25 20 306 255
625 520 1087 905 1495 1250 1580 1339 98 101 129 211 86 307 -11 25 -26 46
-33 46 -53 5 -93 3 -158 -7z"/>
<path d="M10458 8563 c-1 -5 -25 -26 -53 -48 -27 -22 -131 -107 -230 -189 -99
-81 -200 -165 -224 -185 -24 -20 -76 -62 -115 -95 -39 -32 -82 -68 -96 -80
-14 -11 -47 -39 -75 -61 -27 -22 -58 -47 -68 -56 -10 -9 -132 -110 -271 -225
-243 -200 -254 -211 -260 -250 -11 -66 -16 -96 -26 -149 -9 -49 -13 -71 -25
-149 -4 -21 -9 -48 -11 -60 -2 -11 -7 -37 -10 -56 -2 -19 -9 -57 -14 -85 -5
-27 -12 -63 -15 -80 -2 -16 -9 -55 -15 -85 -5 -30 -12 -68 -14 -85 -10 -59
-15 -91 -22 -125 -3 -19 -8 -44 -9 -55 -4 -30 -25 -147 -30 -170 -4 -20 -12
-20 -582 -20 -318 0 -590 -2 -605 -5 -22 -4 -151 -100 -222 -165 -6 -6 -49
-42 -96 -80 -47 -38 -87 -72 -90 -75 -3 -3 -66 -55 -140 -115 -74 -60 -144
-118 -155 -128 -11 -10 -63 -53 -115 -95 -52 -42 -97 -79 -100 -82 -3 -3 -44
-39 -92 -78 -49 -40 -88 -74 -88 -76 0 -1 453 -3 1008 -4 554 0 1015 -1 1025
-1 15 -1 17 -7 11 -38 -8 -45 -6 -35 -39 -188 -14 -66 -28 -133 -30 -150 -3
-16 -9 -39 -12 -50 -3 -11 -7 -29 -9 -40 -1 -11 -14 -73 -28 -137 -14 -64 -27
-127 -30 -140 -22 -109 -25 -132 -21 -136 3 -3 256 -6 564 -6 l559 -1 8 40 c4
22 8 45 9 52 31 136 76 341 111 503 25 113 51 232 59 265 8 33 16 71 19 85 2
14 9 45 15 70 12 57 21 99 26 125 2 11 19 91 39 178 20 87 38 168 40 180 2 12
20 94 39 182 20 88 38 171 41 185 15 73 37 174 41 179 1 3 6 22 9 41 7 45 8
48 46 220 17 80 34 156 36 170 3 14 9 41 14 60 5 19 12 51 15 70 3 19 10 51
15 70 12 46 207 955 226 1055 2 11 17 84 34 163 35 167 43 212 36 212 -2 0 -6
-3 -8 -7z"/>
</g>
</svg>
